<svg xmlns="http://www.w3.org/2000/svg" width="33.893" height="25.736" viewBox="0 0 33.893 25.736">
  <path id="Path_16" data-name="Path 16" d="M1339.531,421.089l2.726-1.361c-.306-.673-.689-.577-1.12-.394a20.146,20.146,0,0,1-8.375,1.63,20.4,20.4,0,0,1-7.505-1.589c-.428-.178-.855-.382-1.248.348l2.756,1.364c-.551.889-1.059,1.752-1.625,2.576a.754.754,0,0,1-.667.157,26.011,26.011,0,0,1-7.858-3.965,1,1,0,0,1-.3-.677,28.389,28.389,0,0,1,4.563-18.133,2.84,2.84,0,0,1,1.286-1.093c1.771-.628,3.587-1.125,5.381-1.69a.861.861,0,0,1,1.235.615c.254.786.676,1.007,1.577.958,2.058-.113,4.13.035,6.2.022a1.057,1.057,0,0,0,.725-.533c.78-1.5.526-1.281,1.976-.933a46.981,46.981,0,0,1,5.136,1.67,2.345,2.345,0,0,1,1.017.936,28.628,28.628,0,0,1,4.708,16.364c-.029,1.73-.444,2.879-2.031,3.594-1.957.882-3.89,1.818-5.822,2.755a.961.961,0,0,1-1.469-.516C1340.421,422.5,1339.98,421.834,1339.531,421.089Zm-8.875-8.731a3.153,3.153,0,1,0-6.272-.038,3.4,3.4,0,0,0,3.124,3.5A3.362,3.362,0,0,0,1330.656,412.357Zm11.253-.367a3.086,3.086,0,0,0-6.151-.392,3.468,3.468,0,0,0,1.32,3.62,2.654,2.654,0,0,0,3,.282C1341.333,414.855,1341.867,413.742,1341.909,411.99Z" transform="translate(-1316.222 -398.139)" fill="#d3b55b"/>
</svg>
