<svg id="Group_87" data-name="Group 87" xmlns="http://www.w3.org/2000/svg" width="20.176" height="20.177" viewBox="0 0 20.176 20.177">
  <path id="Path_94271" data-name="Path 94271" d="M1283.534,1049.152q-2.035,0-4.07,0a5.927,5.927,0,0,1-6.013-5.988q-.009-4.1,0-8.2a5.88,5.88,0,0,1,4.988-5.913,5.992,5.992,0,0,1,1-.073q4.1-.008,8.2,0a5.876,5.876,0,0,1,5.912,4.988,6.114,6.114,0,0,1,.074,1.027q.009,4.07,0,8.141a5.873,5.873,0,0,1-4.962,5.933,6.282,6.282,0,0,1-1.054.08C1286.248,1049.157,1284.891,1049.152,1283.534,1049.152Zm-5.036-10.089a5.036,5.036,0,1,0,5.031-5.034A5.031,5.031,0,0,0,1278.5,1039.062Zm10.92-6.718a.84.84,0,1,0,.836.835A.851.851,0,0,0,1289.418,1032.344Z" transform="translate(-1273.446 -1028.977)" fill="#d3b55b"/>
  <path id="Path_94272" data-name="Path 94272" d="M1394.207,1153.081a3.355,3.355,0,1,1,3.339,3.358A3.347,3.347,0,0,1,1394.207,1153.081Z" transform="translate(-1387.474 -1142.995)" fill="#d3b55b"/>
</svg>
