<svg xmlns="http://www.w3.org/2000/svg" width="32.169" height="18.224" viewBox="0 0 32.169 18.224">
  <g id="Group_86" data-name="Group 86" transform="translate(0)">
    <path id="Path_94267" data-name="Path 94267" d="M704.786,682.768a9.112,9.112,0,1,1,9.09-9.137A9.124,9.124,0,0,1,704.786,682.768Z" transform="translate(-695.662 -664.545)" fill="#d3b55b"/>
    <path id="Path_94268" data-name="Path 94268" d="M966.744,687.656a12.548,12.548,0,0,1,1.215-5.537,5.389,5.389,0,0,1,1.378-1.79,2.533,2.533,0,0,1,3.436.026,5.735,5.735,0,0,1,1.642,2.414,13.537,13.537,0,0,1-.008,9.891,5.654,5.654,0,0,1-1.652,2.407,2.518,2.518,0,0,1-3.407.019,6.15,6.15,0,0,1-1.761-2.627A13.436,13.436,0,0,1,966.744,687.656Z" transform="translate(-947.461 -678.595)" fill="#d3b55b"/>
    <path id="Path_94269" data-name="Path 94269" d="M1105.464,700.942a22.891,22.891,0,0,1-.663,6.18,4.628,4.628,0,0,1-.49,1.094c-.275.448-.718.462-.944-.009a8.192,8.192,0,0,1-.708-1.989,24.266,24.266,0,0,1,.1-9.734,5.812,5.812,0,0,1,.572-1.479c.287-.535.71-.52,1.034,0a6.282,6.282,0,0,1,.786,2.6C1105.311,698.918,1105.4,700.241,1105.464,700.942Z" transform="translate(-1073.295 -692.471)" fill="#d3b55b"/>
  </g>
</svg>
