<svg xmlns="http://www.w3.org/2000/svg" width="28.348" height="28.348" viewBox="0 0 28.348 28.348">
  <path id="Path_94275" data-name="Path 94275" d="M1804.233,242.765a14.174,14.174,0,1,0,14.174,14.174A14.175,14.175,0,0,0,1804.233,242.765Zm-7.181,14.65.061-.1,3.687-5.768a.126.126,0,0,1,.222.016,7.859,7.859,0,0,1,.9,4.166,6.528,6.528,0,0,1-.725,1.586c-.042.08-.089.159-.138.234a.126.126,0,0,1-.1.055h-3.792A.126.126,0,0,1,1797.052,257.415Zm16.435,1.985a.132.132,0,0,1-.078.119,4.535,4.535,0,0,0-1.669,1.136c-1.037,1.443-1.829,3.507-3.6,3.507h-7.387a4.748,4.748,0,0,1-4.74-4.756v-.084a.127.127,0,0,1,.127-.127h4.118a.14.14,0,0,1,.134.156,1.4,1.4,0,0,0,.147.791,1.449,1.449,0,0,0,1.3.807h2.039v-1.592h-2.016a.13.13,0,0,1-.1-.2l.073-.108c.191-.271.463-.692.734-1.171a9.11,9.11,0,0,0,.508-1.015c.03-.062.053-.126.076-.189.039-.111.08-.214.109-.318.029-.088.052-.179.076-.265a4.1,4.1,0,0,0,.1-.929c0-.126-.006-.259-.018-.386s-.023-.277-.041-.415c-.012-.122-.034-.243-.057-.37-.029-.185-.07-.368-.116-.553l-.016-.07c-.035-.127-.064-.248-.1-.374-.115-.4-.248-.785-.387-1.148-.051-.144-.109-.282-.168-.421-.086-.208-.173-.4-.253-.577-.041-.081-.076-.156-.111-.231s-.08-.172-.121-.253c-.029-.063-.063-.121-.086-.179l-.249-.46a.081.081,0,0,1,.092-.118l1.558.422h0l.006,0,.206.057.225.064.083.023v-.926a.805.805,0,0,1,.8-.81.792.792,0,0,1,.567.237.815.815,0,0,1,.234.572v1.375l.166.047a.133.133,0,0,1,.038.019c.041.031.1.076.173.131.059.047.121.1.2.162.15.121.329.277.526.456.052.045.1.092.15.138.254.236.538.513.808.818.076.086.15.173.226.265s.156.185.226.277c.092.122.191.249.277.382.041.063.087.127.127.189.111.167.208.341.3.514.039.08.08.168.115.253a3.7,3.7,0,0,1,.237.7.873.873,0,0,1,.033.156v.012a1.376,1.376,0,0,1,.029.22,2.354,2.354,0,0,1-.041.727,2.609,2.609,0,0,1-.086.3c-.035.1-.07.2-.115.3a4.147,4.147,0,0,1-.313.594c-.04.07-.086.144-.133.214s-.1.144-.15.213c-.064.087-.132.179-.2.26a2.847,2.847,0,0,1-.2.248c-.1.115-.191.224-.288.329-.059.068-.121.138-.185.2s-.127.132-.185.19c-.1.1-.179.173-.248.236l-.16.147a.133.133,0,0,1-.086.032h-1.241v1.592h1.561a1.459,1.459,0,0,0,.949-.351,11.417,11.417,0,0,0,.966-.949.123.123,0,0,1,.06-.037l4.312-1.246a.127.127,0,0,1,.161.122Z" transform="translate(-1790.059 -242.765)" fill="#d3b55b"/>
</svg>
