<svg xmlns="http://www.w3.org/2000/svg" width="28.349" height="28.349" viewBox="0 0 28.349 28.349">
  <path id="OUTLINE_copy_2" d="M14.174,0A14.174,14.174,0,1,0,28.349,14.174,14.175,14.175,0,0,0,14.174,0Zm7.477,9.618a7.145,7.145,0,0,1-.762.847c-.61.605-.642.671-.642,1.177a11.346,11.346,0,0,1-.74,3.3,9.568,9.568,0,0,1-3.624,4.27,9.181,9.181,0,0,1-7.14.814,8.309,8.309,0,0,1-2.1-.968,3.2,3.2,0,0,1,.893-.089,6.092,6.092,0,0,0,2.916-.814l.587-.353-.675-.23a3.294,3.294,0,0,1-2.035-1.8c-.066-.231-.043-.243.565-.243l.631-.011-.533-.253A3.512,3.512,0,0,1,7.5,13.853a3.951,3.951,0,0,1-.392-1.474,1.292,1.292,0,0,1,.511.121c.75.276.849.209.414-.253A3.179,3.179,0,0,1,7.36,8.99l.185-.528.718.715a8.845,8.845,0,0,0,5.18,2.552l.544.066-.033-.54a3.151,3.151,0,0,1,2.123-3.169,3.719,3.719,0,0,1,1.9-.044,4.424,4.424,0,0,1,.925.484l.533.363.587-.188a6,6,0,0,0,.958-.374c.185-.1.348-.154.348-.121a3.208,3.208,0,0,1-.74,1.177c-.458.5-.327.54.6.209.557-.183.569-.183.46.026Z" fill="#d3b55b"/>
</svg>
