<svg xmlns="http://www.w3.org/2000/svg" width="27.243" height="20.438" viewBox="0 0 27.243 20.438">
  <path id="Path_94273" data-name="Path 94273" d="M1764.536,1093.338a6.548,6.548,0,0,0-1.082-2.886,3.759,3.759,0,0,0-2.729-1.229c-3.812-.295-9.531-.295-9.531-.295h-.012s-5.72,0-9.531.295a3.754,3.754,0,0,0-2.729,1.231,6.571,6.571,0,0,0-1.082,2.886,46.692,46.692,0,0,0-.273,4.7v2.2a46.717,46.717,0,0,0,.273,4.7,6.527,6.527,0,0,0,1.081,2.884,4.456,4.456,0,0,0,3,1.242c2.179.222,9.263.29,9.263.29s5.724-.011,9.537-.3a3.776,3.776,0,0,0,2.729-1.232,6.549,6.549,0,0,0,1.082-2.883,46.753,46.753,0,0,0,.273-4.7h0v-2.2A46.831,46.831,0,0,0,1764.536,1093.338Zm-16.752,10.918v-10.219l8.516,5.109Z" transform="translate(-1737.566 -1088.927)" fill="#d3b55b"/>
</svg>
